<svg width="24" height="24" viewBox="0 0 24 24" fill="none" xmlns="http://www.w3.org/2000/svg">
<path d="M13.8954 22H17.5C18.163 22 18.7989 21.7366 19.2678 21.2678C19.7366 20.7989 20 20.163 20 19.5V8.12144C19.9996 7.65747 19.8149 7.21265 19.4867 6.88477L19.4863 6.88443L15.1171 2.51217L13.8954 22ZM13.8954 22C14.019 21.8401 14.1335 21.6732 14.2386 21.5H17.5C18.0304 21.5 18.5391 21.2893 18.9142 20.9142C19.2893 20.5391 19.5 20.0304 19.5 19.5V9V8.5H19H15.25C14.7859 8.5 14.3408 8.31563 14.0126 7.98744C13.6844 7.65925 13.5 7.21413 13.5 6.75V3V2.5H13H8.5C7.96957 2.5 7.46086 2.71071 7.08579 3.08579C6.71071 3.46086 6.5 3.96957 6.5 4.5V7.15698C6.33059 7.20062 6.1637 7.25315 6 7.31432V4.5C6 3.83696 6.26339 3.20107 6.73223 2.73223C7.20107 2.26339 7.83696 2 8.5 2L13.879 2L13.8792 2C14.1091 1.9999 14.3367 2.04507 14.5491 2.13295C14.7614 2.22079 14.9543 2.34956 15.1168 2.51193L13.8954 22ZM18.6895 8H19.8966L19.0431 7.14645L14.8536 2.95695L14 2.10339V3.3105V6.75C14 7.08152 14.1317 7.39946 14.3661 7.63388C14.6005 7.8683 14.9185 8 15.25 8H18.6895ZM10.25 12C10.25 12.663 9.98661 13.2989 9.51777 13.7678C9.04893 14.2366 8.41304 14.5 7.75 14.5C7.08696 14.5 6.45107 14.2366 5.98223 13.7678C5.51339 13.2989 5.25 12.663 5.25 12C5.25 11.337 5.51339 10.7011 5.98223 10.2322C6.45107 9.76339 7.08696 9.5 7.75 9.5C8.41304 9.5 9.04893 9.76339 9.51777 10.2322C9.98661 10.7011 10.25 11.337 10.25 12ZM12.5 18.75C12.5 19.5443 12.1842 20.3378 11.4609 20.9414C10.7319 21.5497 9.54501 22 7.75 22C5.9545 22 4.76763 21.5513 4.03884 20.944C3.31601 20.3417 3 19.5484 3 18.75C3 18.2859 3.18437 17.8408 3.51256 17.5126C3.84075 17.1844 4.28587 17 4.75 17H10.75C11.2141 17 11.6592 17.1844 11.9874 17.5126C12.3156 17.8408 12.5 18.2859 12.5 18.75Z" fill="#333333" stroke="#333333"/>
</svg>